<svg width="415" height="71" viewBox="0 0 415 71" fill="none" xmlns="http://www.w3.org/2000/svg">
<path d="M0.200001 70V-4.76837e-06H63V14.5H16.7V55.5H64V70H0.200001ZM9.2 41.3V27.5H58.5V41.3H9.2ZM95.9453 70L66.1453 16.9H84.8453L106.045 58.9L101.145 59.3L122.745 16.9H141.245L110.545 70H95.9453ZM175.189 71C167.789 71 161.289 69.8333 155.689 67.5C150.156 65.1 145.856 61.8333 142.789 57.7C139.722 53.5667 138.189 48.9 138.189 43.7C138.189 39.3667 139.122 35.5 140.989 32.1C142.856 28.6333 145.389 25.7 148.589 23.3C151.856 20.9 155.589 19.0667 159.789 17.8C164.056 16.4667 168.522 15.8 173.189 15.8C177.922 15.8 182.289 16.4667 186.289 17.8C190.356 19.0667 193.889 20.9 196.889 23.3C199.956 25.6333 202.322 28.4333 203.989 31.7C205.656 34.9667 206.422 38.6 206.289 42.6L206.189 47.5H149.889L147.589 37.5H193.189L191.489 39.8V37.8C191.222 36 190.222 34.4333 188.489 33.1C186.822 31.7 184.656 30.6 181.989 29.8C179.389 29 176.522 28.6 173.389 28.6C169.789 28.6 166.456 29.0667 163.389 30C160.322 30.9333 157.856 32.4333 155.989 34.5C154.122 36.5 153.189 39.1667 153.189 42.5C153.189 45.3667 154.189 47.9667 156.189 50.3C158.256 52.5667 161.122 54.3667 164.789 55.7C168.522 57.0333 172.889 57.7 177.889 57.7C182.956 57.7 187.056 57.1667 190.189 56.1C193.322 54.9667 195.656 54 197.189 53.2L203.989 63.4C201.522 64.9333 198.756 66.3 195.689 67.5C192.622 68.6333 189.356 69.5 185.889 70.1C182.422 70.7 178.856 71 175.189 71ZM220.755 70V16.9H235.855L236.455 31.7L231.855 32.7C232.922 29.8333 234.622 27.1333 236.955 24.6C239.355 22 242.322 19.9 245.855 18.3C249.455 16.6333 253.489 15.8 257.955 15.8C263.289 15.8 267.789 16.8333 271.455 18.9C275.189 20.9667 277.989 23.7333 279.855 27.2C281.789 30.6 282.755 34.4333 282.755 38.7V70H266.755V42.4C266.755 39.8 266.122 37.5333 264.855 35.6C263.655 33.6 261.989 32.0667 259.855 31C257.722 29.8667 255.289 29.3 252.555 29.3C250.022 29.3 247.755 29.7667 245.755 30.7C243.822 31.5667 242.189 32.7 240.855 34.1C239.522 35.4333 238.489 36.9 237.755 38.5C237.089 40.0333 236.755 41.5 236.755 42.9V70H228.755C226.089 70 224.089 70 222.755 70C221.422 70 220.755 70 220.755 70ZM310.278 70V0.499995H326.278V70H310.278ZM294.878 30.9V16.9H344.578V30.9H294.878ZM385.701 71C378.767 71 372.501 70.1667 366.901 68.5C361.367 66.8333 356.834 64.2667 353.301 60.8L363.101 51.9C365.567 54.1 368.767 55.9 372.701 57.3C376.701 58.6333 381.234 59.3 386.301 59.3C387.767 59.3 389.201 59.2333 390.601 59.1C392.067 58.9667 393.401 58.7333 394.601 58.4C395.801 58 396.767 57.5 397.501 56.9C398.234 56.3 398.601 55.5667 398.601 54.7C398.601 53.3 397.434 52.2667 395.101 51.6C393.434 51.1333 391.434 50.7667 389.101 50.5C386.767 50.1667 384.534 49.8667 382.401 49.6C377.934 48.9333 373.967 48.2667 370.501 47.6C367.034 46.8667 364.067 45.7667 361.601 44.3C359.601 42.9667 358.001 41.3667 356.801 39.5C355.667 37.5667 355.101 35.1667 355.101 32.3C355.101 29.7 355.867 27.4 357.401 25.4C358.934 23.3333 361.034 21.6 363.701 20.2C366.367 18.7333 369.434 17.6333 372.901 16.9C376.434 16.1667 380.167 15.8 384.101 15.8C387.634 15.8 391.234 16.1 394.901 16.7C398.634 17.2333 402.167 18.1 405.501 19.3C408.901 20.4333 411.834 21.9667 414.301 23.9L406.401 33.9C404.601 32.7 402.401 31.6 399.801 30.6C397.201 29.6 394.401 28.8 391.401 28.2C388.401 27.6 385.334 27.3 382.201 27.3C380.801 27.3 379.401 27.3667 378.001 27.5C376.667 27.5667 375.434 27.7667 374.301 28.1C373.234 28.4333 372.334 28.8667 371.601 29.4C370.867 29.9333 370.501 30.6 370.501 31.4C370.501 31.8667 370.667 32.3333 371.001 32.8C371.334 33.2 371.801 33.5667 372.401 33.9C373.734 34.7 375.634 35.3333 378.101 35.8C380.634 36.2 383.367 36.6 386.301 37C391.834 37.7333 396.501 38.6667 400.301 39.8C404.167 40.9333 407.234 42.2667 409.501 43.8C411.301 45 412.601 46.4 413.401 48C414.267 49.5333 414.701 51.3333 414.701 53.4C414.701 57 413.467 60.1 411.001 62.7C408.601 65.3 405.234 67.3333 400.901 68.8C396.567 70.2667 391.501 71 385.701 71Z" fill="white"/>
</svg>
